<mxfile host="Electron" agent="Mozilla/5.0 (Windows NT 10.0; Win64; x64) AppleWebKit/537.36 (KHTML, like Gecko) draw.io/27.0.2 Chrome/134.0.6998.205 Electron/35.3.0 Safari/537.36" version="27.0.2">
  <diagram name="Сторінка-1" id="C0YtzaH7v6rR8053tlRf">
    <mxGraphModel dx="4995" dy="3673" grid="1" gridSize="10" guides="1" tooltips="1" connect="1" arrows="1" fold="1" page="1" pageScale="1" pageWidth="827" pageHeight="1169" math="0" shadow="0">
      <root>
        <mxCell id="0" />
        <mxCell id="1" parent="0" />
        <mxCell id="EbOq1lk0TwP8zjaR6-vU-1" value="&lt;span style=&quot;text-align: left;&quot;&gt;GameLogic&lt;/span&gt;" style="swimlane;fontStyle=1;align=center;verticalAlign=top;childLayout=stackLayout;horizontal=1;startSize=26;horizontalStack=0;resizeParent=1;resizeParentMax=0;resizeLast=0;collapsible=1;marginBottom=0;whiteSpace=wrap;html=1;" parent="1" vertex="1">
          <mxGeometry x="70" y="-700" width="630" height="420" as="geometry" />
        </mxCell>
        <mxCell id="EbOq1lk0TwP8zjaR6-vU-2" value="&amp;nbsp; &amp;nbsp; &amp;nbsp; &amp;nbsp; -Board _board&lt;br style=&quot;padding: 0px; margin: 0px;&quot;&gt;&amp;nbsp; &amp;nbsp; &amp;nbsp; &amp;nbsp; -string _currentPlayer&lt;br style=&quot;padding: 0px; margin: 0px;&quot;&gt;&amp;nbsp; &amp;nbsp; &amp;nbsp; &amp;nbsp; -bool _isComputerMode&lt;br style=&quot;padding: 0px; margin: 0px;&quot;&gt;&amp;nbsp; &amp;nbsp; &amp;nbsp; &amp;nbsp; -bool _playerPlaysBlack&lt;br style=&quot;padding: 0px; margin: 0px;&quot;&gt;&amp;nbsp; &amp;nbsp; &amp;nbsp; &amp;nbsp; -Random _random&lt;br style=&quot;padding: 0px; margin: 0px;&quot;&gt;&amp;nbsp; &amp;nbsp; &amp;nbsp; &amp;nbsp; -int _halfMovesSinceCaptureOrPawn&lt;br style=&quot;padding: 0px; margin: 0px;&quot;&gt;&amp;nbsp; &amp;nbsp; &amp;nbsp; &amp;nbsp; +Board Board&lt;br style=&quot;padding: 0px; margin: 0px;&quot;&gt;&amp;nbsp; &amp;nbsp; &amp;nbsp; &amp;nbsp; +string CurrentPlayer&lt;br style=&quot;padding: 0px; margin: 0px;&quot;&gt;&amp;nbsp; &amp;nbsp; &amp;nbsp; &amp;nbsp; +bool PlayerPlaysBlack&lt;br style=&quot;padding: 0px; margin: 0px;&quot;&gt;&amp;nbsp; &amp;nbsp; &amp;nbsp; &amp;nbsp; +ComputerDifficulty CurrentDifficulty&lt;br style=&quot;padding: 0px; margin: 0px;&quot;&gt;&amp;nbsp; &amp;nbsp; &amp;nbsp; &amp;nbsp; +event EventHandler BoardUpdated&lt;br style=&quot;padding: 0px; margin: 0px;&quot;&gt;&amp;nbsp; &amp;nbsp; &amp;nbsp; &amp;nbsp; +event EventHandler~MoveEventArgs~ MoveMade&lt;br style=&quot;padding: 0px; margin: 0px;&quot;&gt;&amp;nbsp; &amp;nbsp; &amp;nbsp; &amp;nbsp; +event EventHandler~GameEndEventArgs~ GameEnded&lt;br style=&quot;padding: 0px; margin: 0px;&quot;&gt;&amp;nbsp; &amp;nbsp; &amp;nbsp; &amp;nbsp; +event EventHandler~PawnPromotionEventArgs~ PawnPromotion" style="text;strokeColor=none;fillColor=none;align=left;verticalAlign=top;spacingLeft=4;spacingRight=4;overflow=hidden;rotatable=0;points=[[0,0.5],[1,0.5]];portConstraint=eastwest;whiteSpace=wrap;html=1;" parent="EbOq1lk0TwP8zjaR6-vU-1" vertex="1">
          <mxGeometry y="26" width="630" height="214" as="geometry" />
        </mxCell>
        <mxCell id="EbOq1lk0TwP8zjaR6-vU-3" value="" style="line;strokeWidth=1;fillColor=none;align=left;verticalAlign=middle;spacingTop=-1;spacingLeft=3;spacingRight=3;rotatable=0;labelPosition=right;points=[];portConstraint=eastwest;strokeColor=inherit;" parent="EbOq1lk0TwP8zjaR6-vU-1" vertex="1">
          <mxGeometry y="240" width="630" height="8" as="geometry" />
        </mxCell>
        <mxCell id="EbOq1lk0TwP8zjaR6-vU-4" value="&amp;nbsp; &amp;nbsp; &amp;nbsp; &amp;nbsp; +GameLogic()&lt;br style=&quot;padding: 0px; margin: 0px;&quot;&gt;&amp;nbsp; &amp;nbsp; &amp;nbsp; &amp;nbsp; +InitializeGame() void&lt;br style=&quot;padding: 0px; margin: 0px;&quot;&gt;&amp;nbsp; &amp;nbsp; &amp;nbsp; &amp;nbsp; +LoadGame(Piece?[,] boardState, string currentPlayer) void&lt;br style=&quot;padding: 0px; margin: 0px;&quot;&gt;&amp;nbsp; &amp;nbsp; &amp;nbsp; &amp;nbsp; +GetCurrentBoard() ObservableCollection~BoardCell~&lt;br style=&quot;padding: 0px; margin: 0px;&quot;&gt;&amp;nbsp; &amp;nbsp; &amp;nbsp; &amp;nbsp; +TryMovePiece(int startRow, int startCol, int endRow, int endCol) bool&lt;br style=&quot;padding: 0px; margin: 0px;&quot;&gt;&amp;nbsp; &amp;nbsp; &amp;nbsp; &amp;nbsp; +MakeComputerMove() void&lt;br style=&quot;padding: 0px; margin: 0px;&quot;&gt;&amp;nbsp; &amp;nbsp; &amp;nbsp; &amp;nbsp; +GetBestMove(List~Move~ possibleMoves, int difficulty, bool maximizingPlayer) Move?&lt;br style=&quot;padding: 0px; margin: 0px;&quot;&gt;&amp;nbsp; &amp;nbsp; &amp;nbsp; &amp;nbsp; -GetBestMoveMinimax(List~Move~ possibleMoves, int depth, bool maximizingPlayer) Move?&lt;br style=&quot;padding: 0px; margin: 0px;&quot;&gt;&amp;nbsp; &amp;nbsp; &amp;nbsp; &amp;nbsp; -GetBestMoveAlphaBeta(List~Move~ possibleMoves, int depth, bool maximizingPlayer, int alpha, int beta) Move?&lt;br style=&quot;padding: 0px; margin: 0px;&quot;&gt;&amp;nbsp; &amp;nbsp; &amp;nbsp; &amp;nbsp; -GetBestMoveParallel(List~Move~ possibleMoves, int depth, bool maximizingPlayer) Move?" style="text;strokeColor=none;fillColor=none;align=left;verticalAlign=top;spacingLeft=4;spacingRight=4;overflow=hidden;rotatable=0;points=[[0,0.5],[1,0.5]];portConstraint=eastwest;whiteSpace=wrap;html=1;" parent="EbOq1lk0TwP8zjaR6-vU-1" vertex="1">
          <mxGeometry y="248" width="630" height="172" as="geometry" />
        </mxCell>
        <mxCell id="EbOq1lk0TwP8zjaR6-vU-6" value="MainWindow" style="swimlane;fontStyle=1;align=center;verticalAlign=top;childLayout=stackLayout;horizontal=1;startSize=26;horizontalStack=0;resizeParent=1;resizeParentMax=0;resizeLast=0;collapsible=1;marginBottom=0;whiteSpace=wrap;html=1;" parent="1" vertex="1">
          <mxGeometry x="827" y="-970" width="340" height="370" as="geometry" />
        </mxCell>
        <mxCell id="EbOq1lk0TwP8zjaR6-vU-7" value="&amp;nbsp; &amp;nbsp; &amp;nbsp; &amp;nbsp; -BoardCell? _draggedCell&lt;br style=&quot;padding: 0px; margin: 0px;&quot;&gt;&amp;nbsp; &amp;nbsp; &amp;nbsp; &amp;nbsp; -bool _isBoardFlipped&lt;br style=&quot;padding: 0px; margin: 0px;&quot;&gt;&amp;nbsp; &amp;nbsp; &amp;nbsp; &amp;nbsp; -bool _isSetupPositionMode&lt;br style=&quot;padding: 0px; margin: 0px;&quot;&gt;&amp;nbsp; &amp;nbsp; &amp;nbsp; &amp;nbsp; -bool _isGameActive&lt;br style=&quot;padding: 0px; margin: 0px;&quot;&gt;&amp;nbsp; &amp;nbsp; &amp;nbsp; &amp;nbsp; -ObservableCollection~BoardCell~ _board&lt;br style=&quot;padding: 0px; margin: 0px;&quot;&gt;&amp;nbsp; &amp;nbsp; &amp;nbsp; &amp;nbsp; -ObservableCollection~string~ _moveHistory&lt;br style=&quot;padding: 0px; margin: 0px;&quot;&gt;&amp;nbsp; &amp;nbsp; &amp;nbsp; &amp;nbsp; -string _currentPlayer&lt;br style=&quot;padding: 0px; margin: 0px;&quot;&gt;&amp;nbsp; &amp;nbsp; &amp;nbsp; &amp;nbsp; -bool _isComputerMode&lt;br style=&quot;padding: 0px; margin: 0px;&quot;&gt;&amp;nbsp; &amp;nbsp; &amp;nbsp; &amp;nbsp; -ChessColor _playerColor&lt;br style=&quot;padding: 0px; margin: 0px;&quot;&gt;&amp;nbsp; &amp;nbsp; &amp;nbsp; &amp;nbsp; -GameLogic _gameLogic&lt;br style=&quot;padding: 0px; margin: 0px;&quot;&gt;&amp;nbsp; &amp;nbsp; &amp;nbsp; &amp;nbsp; -DispatcherTimer? _whiteTimer&lt;br style=&quot;padding: 0px; margin: 0px;&quot;&gt;&amp;nbsp; &amp;nbsp; &amp;nbsp; &amp;nbsp; -DispatcherTimer? _blackTimer&lt;br style=&quot;padding: 0px; margin: 0px;&quot;&gt;&amp;nbsp; &amp;nbsp; &amp;nbsp; &amp;nbsp; +bool IsBoardFlipped&lt;br style=&quot;padding: 0px; margin: 0px;&quot;&gt;&amp;nbsp; &amp;nbsp; &amp;nbsp; &amp;nbsp; +bool IsGameActive&lt;br style=&quot;padding: 0px; margin: 0px;&quot;&gt;&amp;nbsp; &amp;nbsp; &amp;nbsp; &amp;nbsp; +bool IsComputerMode&lt;br style=&quot;padding: 0px; margin: 0px;&quot;&gt;&amp;nbsp; &amp;nbsp; &amp;nbsp; &amp;nbsp; +ObservableCollection~BoardCell~ Board&lt;br style=&quot;padding: 0px; margin: 0px;&quot;&gt;&amp;nbsp; &amp;nbsp; &amp;nbsp; &amp;nbsp; +ObservableCollection~string~ MoveHistory&lt;br style=&quot;padding: 0px; margin: 0px;&quot;&gt;" style="text;strokeColor=none;fillColor=none;align=left;verticalAlign=top;spacingLeft=4;spacingRight=4;overflow=hidden;rotatable=0;points=[[0,0.5],[1,0.5]];portConstraint=eastwest;whiteSpace=wrap;html=1;" parent="EbOq1lk0TwP8zjaR6-vU-6" vertex="1">
          <mxGeometry y="26" width="340" height="254" as="geometry" />
        </mxCell>
        <mxCell id="EbOq1lk0TwP8zjaR6-vU-8" value="" style="line;strokeWidth=1;fillColor=none;align=left;verticalAlign=middle;spacingTop=-1;spacingLeft=3;spacingRight=3;rotatable=0;labelPosition=right;points=[];portConstraint=eastwest;strokeColor=inherit;" parent="EbOq1lk0TwP8zjaR6-vU-6" vertex="1">
          <mxGeometry y="280" width="340" height="8" as="geometry" />
        </mxCell>
        <mxCell id="EbOq1lk0TwP8zjaR6-vU-9" value="&amp;nbsp; &amp;nbsp; &amp;nbsp; &amp;nbsp; -UpdateBoardUI() void&lt;br style=&quot;padding: 0px; margin: 0px;&quot;&gt;&amp;nbsp; &amp;nbsp; &amp;nbsp; &amp;nbsp; -ShowValidMovesForPiece(int row, int col) void&lt;br style=&quot;padding: 0px; margin: 0px;&quot;&gt;&amp;nbsp; &amp;nbsp; &amp;nbsp; &amp;nbsp; -InitializeGame() void&lt;br style=&quot;padding: 0px; margin: 0px;&quot;&gt;&amp;nbsp; &amp;nbsp; &amp;nbsp; &amp;nbsp; -SaveCurrentSetupToGameLogic() void&lt;br style=&quot;padding: 0px; margin: 0px;&quot;&gt;&amp;nbsp; &amp;nbsp; &amp;nbsp; &amp;nbsp; -TryMove(BoardCell startCell, BoardCell endCell) void" style="text;strokeColor=none;fillColor=none;align=left;verticalAlign=top;spacingLeft=4;spacingRight=4;overflow=hidden;rotatable=0;points=[[0,0.5],[1,0.5]];portConstraint=eastwest;whiteSpace=wrap;html=1;" parent="EbOq1lk0TwP8zjaR6-vU-6" vertex="1">
          <mxGeometry y="288" width="340" height="82" as="geometry" />
        </mxCell>
        <mxCell id="EbOq1lk0TwP8zjaR6-vU-13" value="Board" style="swimlane;fontStyle=1;align=center;verticalAlign=top;childLayout=stackLayout;horizontal=1;startSize=26;horizontalStack=0;resizeParent=1;resizeParentMax=0;resizeLast=0;collapsible=1;marginBottom=0;whiteSpace=wrap;html=1;" parent="1" vertex="1">
          <mxGeometry x="270" y="-110" width="400" height="360" as="geometry" />
        </mxCell>
        <mxCell id="EbOq1lk0TwP8zjaR6-vU-14" value="&amp;nbsp;&amp;nbsp; &amp;nbsp; &amp;nbsp; &amp;nbsp;-Piece?[,] _pieces&lt;br style=&quot;padding: 0px; margin: 0px;&quot;&gt;&amp;nbsp; &amp;nbsp; &amp;nbsp; &amp;nbsp; -HashSet~string~ _movedPieces&lt;br style=&quot;padding: 0px; margin: 0px;&quot;&gt;&amp;nbsp; &amp;nbsp; &amp;nbsp; &amp;nbsp; +event EventHandler BoardUpdated&lt;br style=&quot;padding: 0px; margin: 0px;&quot;&gt;" style="text;strokeColor=none;fillColor=none;align=left;verticalAlign=top;spacingLeft=4;spacingRight=4;overflow=hidden;rotatable=0;points=[[0,0.5],[1,0.5]];portConstraint=eastwest;whiteSpace=wrap;html=1;" parent="EbOq1lk0TwP8zjaR6-vU-13" vertex="1">
          <mxGeometry y="26" width="400" height="64" as="geometry" />
        </mxCell>
        <mxCell id="EbOq1lk0TwP8zjaR6-vU-15" value="" style="line;strokeWidth=1;fillColor=none;align=left;verticalAlign=middle;spacingTop=-1;spacingLeft=3;spacingRight=3;rotatable=0;labelPosition=right;points=[];portConstraint=eastwest;strokeColor=inherit;" parent="EbOq1lk0TwP8zjaR6-vU-13" vertex="1">
          <mxGeometry y="90" width="400" height="8" as="geometry" />
        </mxCell>
        <mxCell id="EbOq1lk0TwP8zjaR6-vU-16" value="&amp;nbsp; &amp;nbsp; &amp;nbsp; &amp;nbsp; +Board()&lt;br style=&quot;padding: 0px; margin: 0px;&quot;&gt;&amp;nbsp; &amp;nbsp; &amp;nbsp; &amp;nbsp; +Board(Piece?[,] initialPieces)&lt;br style=&quot;padding: 0px; margin: 0px;&quot;&gt;&amp;nbsp; &amp;nbsp; &amp;nbsp; &amp;nbsp; +InitializeBoard() void&lt;br style=&quot;padding: 0px; margin: 0px;&quot;&gt;&amp;nbsp; &amp;nbsp; &amp;nbsp; &amp;nbsp; -SetupPieces(string color) void&lt;br style=&quot;padding: 0px; margin: 0px;&quot;&gt;&amp;nbsp; &amp;nbsp; &amp;nbsp; &amp;nbsp; +ClearBoard() void&lt;br style=&quot;padding: 0px; margin: 0px;&quot;&gt;&amp;nbsp; &amp;nbsp; &amp;nbsp; &amp;nbsp; +SetPiece(int row, int col, Piece?) void&lt;br style=&quot;padding: 0px; margin: 0px;&quot;&gt;&amp;nbsp; &amp;nbsp; &amp;nbsp; &amp;nbsp; +GetPiece(int row, int col) Piece?&lt;br style=&quot;padding: 0px; margin: 0px;&quot;&gt;&amp;nbsp; &amp;nbsp; &amp;nbsp; &amp;nbsp; +GetPieces() Piece?[,]&lt;br style=&quot;padding: 0px; margin: 0px;&quot;&gt;&amp;nbsp; &amp;nbsp; &amp;nbsp; &amp;nbsp; +FindKingPosition(string color, out int row, out int col) bool&lt;br style=&quot;padding: 0px; margin: 0px;&quot;&gt;&amp;nbsp; &amp;nbsp; &amp;nbsp; &amp;nbsp; +MovePiece(int startRow, int startCol, int endRow, int endCol) Piece?&lt;br style=&quot;padding: 0px; margin: 0px;&quot;&gt;&amp;nbsp; &amp;nbsp; &amp;nbsp; &amp;nbsp; +IsValidMove(int startRow, int startCol, int endRow, int endCol, string currentPlayer) bool&lt;br style=&quot;padding: 0px; margin: 0px;&quot;&gt;&amp;nbsp; &amp;nbsp; &amp;nbsp; &amp;nbsp; +IsPositionUnderAttack(int row, int col, string attackingColor) bool&lt;br style=&quot;padding: 0px; margin: 0px;&quot;&gt;&amp;nbsp; &amp;nbsp; &amp;nbsp; &amp;nbsp; +IsKingInCheck(string color) bool&lt;br style=&quot;padding: 0px; margin: 0px;&quot;&gt;&amp;nbsp; &amp;nbsp; &amp;nbsp; &amp;nbsp; +GetAllPossibleMovesForPlayer(string playerColor) List~Move~&lt;br style=&quot;padding: 0px; margin: 0px;&quot;&gt;&amp;nbsp; &amp;nbsp; &amp;nbsp; &amp;nbsp; +EvaluatePosition() int" style="text;strokeColor=none;fillColor=none;align=left;verticalAlign=top;spacingLeft=4;spacingRight=4;overflow=hidden;rotatable=0;points=[[0,0.5],[1,0.5]];portConstraint=eastwest;whiteSpace=wrap;html=1;" parent="EbOq1lk0TwP8zjaR6-vU-13" vertex="1">
          <mxGeometry y="98" width="400" height="262" as="geometry" />
        </mxCell>
        <mxCell id="EbOq1lk0TwP8zjaR6-vU-17" value="&lt;span style=&quot;text-align: left;&quot;&gt;GameEndType&lt;/span&gt;" style="swimlane;fontStyle=1;align=center;verticalAlign=top;childLayout=stackLayout;horizontal=1;startSize=26;horizontalStack=0;resizeParent=1;resizeParentMax=0;resizeLast=0;collapsible=1;marginBottom=0;whiteSpace=wrap;html=1;" parent="1" vertex="1">
          <mxGeometry x="-50" y="200" width="160" height="148" as="geometry" />
        </mxCell>
        <mxCell id="EbOq1lk0TwP8zjaR6-vU-18" value="&amp;lt;&amp;lt;enumeration&amp;gt;&amp;gt;&lt;br style=&quot;padding: 0px; margin: 0px;&quot;&gt;&amp;nbsp; &amp;nbsp; &amp;nbsp; &amp;nbsp; None&lt;br style=&quot;padding: 0px; margin: 0px;&quot;&gt;&amp;nbsp; &amp;nbsp; &amp;nbsp; &amp;nbsp; Checkmate&lt;br style=&quot;padding: 0px; margin: 0px;&quot;&gt;&amp;nbsp; &amp;nbsp; &amp;nbsp; &amp;nbsp; Stalemate&lt;br style=&quot;padding: 0px; margin: 0px;&quot;&gt;&amp;nbsp; &amp;nbsp; &amp;nbsp; &amp;nbsp; KingCaptured&lt;br style=&quot;padding: 0px; margin: 0px;&quot;&gt;&amp;nbsp; &amp;nbsp; &amp;nbsp; &amp;nbsp; Draw&lt;br style=&quot;padding: 0px; margin: 0px;&quot;&gt;&amp;nbsp; &amp;nbsp; &amp;nbsp; &amp;nbsp; Resignation" style="text;strokeColor=none;fillColor=none;align=left;verticalAlign=top;spacingLeft=4;spacingRight=4;overflow=hidden;rotatable=0;points=[[0,0.5],[1,0.5]];portConstraint=eastwest;whiteSpace=wrap;html=1;" parent="EbOq1lk0TwP8zjaR6-vU-17" vertex="1">
          <mxGeometry y="26" width="160" height="114" as="geometry" />
        </mxCell>
        <mxCell id="EbOq1lk0TwP8zjaR6-vU-19" value="" style="line;strokeWidth=1;fillColor=none;align=left;verticalAlign=middle;spacingTop=-1;spacingLeft=3;spacingRight=3;rotatable=0;labelPosition=right;points=[];portConstraint=eastwest;strokeColor=inherit;" parent="EbOq1lk0TwP8zjaR6-vU-17" vertex="1">
          <mxGeometry y="140" width="160" height="8" as="geometry" />
        </mxCell>
        <mxCell id="EbOq1lk0TwP8zjaR6-vU-21" value="&lt;span style=&quot;text-align: left;&quot;&gt;Move&lt;/span&gt;" style="swimlane;fontStyle=1;align=center;verticalAlign=top;childLayout=stackLayout;horizontal=1;startSize=26;horizontalStack=0;resizeParent=1;resizeParentMax=0;resizeLast=0;collapsible=1;marginBottom=0;whiteSpace=wrap;html=1;" parent="1" vertex="1">
          <mxGeometry x="790" y="150" width="220" height="220" as="geometry" />
        </mxCell>
        <mxCell id="EbOq1lk0TwP8zjaR6-vU-22" value="&amp;nbsp; &amp;nbsp; &amp;nbsp; &amp;nbsp; +int StartRow&lt;br style=&quot;padding: 0px; margin: 0px;&quot;&gt;&amp;nbsp; &amp;nbsp; &amp;nbsp; &amp;nbsp; +int StartCol&lt;br style=&quot;padding: 0px; margin: 0px;&quot;&gt;&amp;nbsp; &amp;nbsp; &amp;nbsp; &amp;nbsp; +int EndRow&lt;br style=&quot;padding: 0px; margin: 0px;&quot;&gt;&amp;nbsp; &amp;nbsp; &amp;nbsp; &amp;nbsp; +int EndCol&lt;br style=&quot;padding: 0px; margin: 0px;&quot;&gt;&amp;nbsp; &amp;nbsp; &amp;nbsp; &amp;nbsp; +int Score&lt;br style=&quot;padding: 0px; margin: 0px;&quot;&gt;&amp;nbsp; &amp;nbsp; &amp;nbsp; &amp;nbsp; +MoveFlag Flag&lt;br style=&quot;padding: 0px; margin: 0px;&quot;&gt;&amp;nbsp; &amp;nbsp; &amp;nbsp; &amp;nbsp; +Piece? CapturedPiece" style="text;strokeColor=none;fillColor=none;align=left;verticalAlign=top;spacingLeft=4;spacingRight=4;overflow=hidden;rotatable=0;points=[[0,0.5],[1,0.5]];portConstraint=eastwest;whiteSpace=wrap;html=1;" parent="EbOq1lk0TwP8zjaR6-vU-21" vertex="1">
          <mxGeometry y="26" width="220" height="114" as="geometry" />
        </mxCell>
        <mxCell id="EbOq1lk0TwP8zjaR6-vU-23" value="" style="line;strokeWidth=1;fillColor=none;align=left;verticalAlign=middle;spacingTop=-1;spacingLeft=3;spacingRight=3;rotatable=0;labelPosition=right;points=[];portConstraint=eastwest;strokeColor=inherit;" parent="EbOq1lk0TwP8zjaR6-vU-21" vertex="1">
          <mxGeometry y="140" width="220" height="8" as="geometry" />
        </mxCell>
        <mxCell id="EbOq1lk0TwP8zjaR6-vU-24" value="&amp;nbsp; &amp;nbsp; &amp;nbsp; &amp;nbsp; +Move(int startRow, int startCol, int endRow, int endCol)&lt;br style=&quot;padding: 0px; margin: 0px;&quot;&gt;&amp;nbsp; &amp;nbsp; &amp;nbsp; &amp;nbsp; +string ToAlgebraicNotation()&lt;br style=&quot;padding: 0px; margin: 0px;&quot;&gt;&amp;nbsp; &amp;nbsp; &amp;nbsp; &amp;nbsp; +Move Clone()" style="text;strokeColor=none;fillColor=none;align=left;verticalAlign=top;spacingLeft=4;spacingRight=4;overflow=hidden;rotatable=0;points=[[0,0.5],[1,0.5]];portConstraint=eastwest;whiteSpace=wrap;html=1;" parent="EbOq1lk0TwP8zjaR6-vU-21" vertex="1">
          <mxGeometry y="148" width="220" height="72" as="geometry" />
        </mxCell>
        <mxCell id="EbOq1lk0TwP8zjaR6-vU-25" value="&lt;span style=&quot;text-align: left;&quot;&gt;PawnPromotionDialog&lt;/span&gt;" style="swimlane;fontStyle=1;align=center;verticalAlign=top;childLayout=stackLayout;horizontal=1;startSize=26;horizontalStack=0;resizeParent=1;resizeParentMax=0;resizeLast=0;collapsible=1;marginBottom=0;whiteSpace=wrap;html=1;" parent="1" vertex="1">
          <mxGeometry x="1080" y="-490" width="280" height="120" as="geometry" />
        </mxCell>
        <mxCell id="EbOq1lk0TwP8zjaR6-vU-26" value="&amp;nbsp; &amp;nbsp; &amp;nbsp; &amp;nbsp; +string SelectedPieceType&lt;br style=&quot;padding: 0px; margin: 0px;&quot;&gt;&amp;nbsp; &amp;nbsp; &amp;nbsp; &amp;nbsp; -string PawnColor" style="text;strokeColor=none;fillColor=none;align=left;verticalAlign=top;spacingLeft=4;spacingRight=4;overflow=hidden;rotatable=0;points=[[0,0.5],[1,0.5]];portConstraint=eastwest;whiteSpace=wrap;html=1;" parent="EbOq1lk0TwP8zjaR6-vU-25" vertex="1">
          <mxGeometry y="26" width="280" height="44" as="geometry" />
        </mxCell>
        <mxCell id="EbOq1lk0TwP8zjaR6-vU-27" value="" style="line;strokeWidth=1;fillColor=none;align=left;verticalAlign=middle;spacingTop=-1;spacingLeft=3;spacingRight=3;rotatable=0;labelPosition=right;points=[];portConstraint=eastwest;strokeColor=inherit;" parent="EbOq1lk0TwP8zjaR6-vU-25" vertex="1">
          <mxGeometry y="70" width="280" height="8" as="geometry" />
        </mxCell>
        <mxCell id="EbOq1lk0TwP8zjaR6-vU-96" value="&amp;nbsp; &amp;nbsp; &amp;nbsp; &amp;nbsp; +PawnPromotionDialog(string pawnColor)&lt;br style=&quot;padding: 0px; margin: 0px;&quot;&gt;&amp;nbsp; &amp;nbsp; &amp;nbsp; &amp;nbsp; -InitializePromotionOptions() void" style="text;strokeColor=none;fillColor=none;align=left;verticalAlign=top;spacingLeft=4;spacingRight=4;overflow=hidden;rotatable=0;points=[[0,0.5],[1,0.5]];portConstraint=eastwest;whiteSpace=wrap;html=1;" parent="EbOq1lk0TwP8zjaR6-vU-25" vertex="1">
          <mxGeometry y="78" width="280" height="42" as="geometry" />
        </mxCell>
        <mxCell id="EbOq1lk0TwP8zjaR6-vU-29" value="&lt;span style=&quot;text-align: left;&quot;&gt;BoardCell&lt;/span&gt;" style="swimlane;fontStyle=1;align=center;verticalAlign=top;childLayout=stackLayout;horizontal=1;startSize=26;horizontalStack=0;resizeParent=1;resizeParentMax=0;resizeLast=0;collapsible=1;marginBottom=0;whiteSpace=wrap;html=1;" parent="1" vertex="1">
          <mxGeometry x="1420" y="-40" width="360" height="230" as="geometry" />
        </mxCell>
        <mxCell id="EbOq1lk0TwP8zjaR6-vU-30" value="&amp;nbsp; &amp;nbsp; &amp;nbsp; &amp;nbsp; -bool _isHighlighted&lt;br style=&quot;padding: 0px; margin: 0px;&quot;&gt;&amp;nbsp; &amp;nbsp; &amp;nbsp; &amp;nbsp; -Piece? _piece&lt;br style=&quot;padding: 0px; margin: 0px;&quot;&gt;&amp;nbsp; &amp;nbsp; &amp;nbsp; &amp;nbsp; +int Row&lt;br style=&quot;padding: 0px; margin: 0px;&quot;&gt;&amp;nbsp; &amp;nbsp; &amp;nbsp; &amp;nbsp; +int Col&lt;br style=&quot;padding: 0px; margin: 0px;&quot;&gt;&amp;nbsp; &amp;nbsp; &amp;nbsp; &amp;nbsp; +Brush Background&lt;br style=&quot;padding: 0px; margin: 0px;&quot;&gt;&amp;nbsp; &amp;nbsp; &amp;nbsp; &amp;nbsp; +bool IsHighlighted&lt;br style=&quot;padding: 0px; margin: 0px;&quot;&gt;&amp;nbsp; &amp;nbsp; &amp;nbsp; &amp;nbsp; +Piece? Piece&lt;br style=&quot;padding: 0px; margin: 0px;&quot;&gt;&amp;nbsp; &amp;nbsp; &amp;nbsp; &amp;nbsp; +event PropertyChangedEventHandler? PropertyChanged" style="text;strokeColor=none;fillColor=none;align=left;verticalAlign=top;spacingLeft=4;spacingRight=4;overflow=hidden;rotatable=0;points=[[0,0.5],[1,0.5]];portConstraint=eastwest;whiteSpace=wrap;html=1;" parent="EbOq1lk0TwP8zjaR6-vU-29" vertex="1">
          <mxGeometry y="26" width="360" height="134" as="geometry" />
        </mxCell>
        <mxCell id="EbOq1lk0TwP8zjaR6-vU-31" value="" style="line;strokeWidth=1;fillColor=none;align=left;verticalAlign=middle;spacingTop=-1;spacingLeft=3;spacingRight=3;rotatable=0;labelPosition=right;points=[];portConstraint=eastwest;strokeColor=inherit;" parent="EbOq1lk0TwP8zjaR6-vU-29" vertex="1">
          <mxGeometry y="160" width="360" height="8" as="geometry" />
        </mxCell>
        <mxCell id="EbOq1lk0TwP8zjaR6-vU-32" value="&amp;nbsp; &amp;nbsp; &amp;nbsp; &amp;nbsp; +BoardCell(int row, int col, Brush background, Piece? piece)&lt;br style=&quot;padding: 0px; margin: 0px;&quot;&gt;&amp;nbsp; &amp;nbsp; &amp;nbsp; &amp;nbsp; +string GetAlgebraicNotation()&lt;br style=&quot;padding: 0px; margin: 0px;&quot;&gt;&amp;nbsp; &amp;nbsp; &amp;nbsp; &amp;nbsp; +BoardCell Clone()" style="text;strokeColor=none;fillColor=none;align=left;verticalAlign=top;spacingLeft=4;spacingRight=4;overflow=hidden;rotatable=0;points=[[0,0.5],[1,0.5]];portConstraint=eastwest;whiteSpace=wrap;html=1;" parent="EbOq1lk0TwP8zjaR6-vU-29" vertex="1">
          <mxGeometry y="168" width="360" height="62" as="geometry" />
        </mxCell>
        <mxCell id="EbOq1lk0TwP8zjaR6-vU-33" value="&lt;span style=&quot;text-align: left;&quot;&gt;Piece&lt;/span&gt;" style="swimlane;fontStyle=1;align=center;verticalAlign=top;childLayout=stackLayout;horizontal=1;startSize=26;horizontalStack=0;resizeParent=1;resizeParentMax=0;resizeLast=0;collapsible=1;marginBottom=0;whiteSpace=wrap;html=1;" parent="1" vertex="1">
          <mxGeometry x="414" y="390" width="270" height="150" as="geometry" />
        </mxCell>
        <mxCell id="EbOq1lk0TwP8zjaR6-vU-34" value="&amp;nbsp; &amp;nbsp;&amp;nbsp; &amp;nbsp; &amp;nbsp; +string Color&lt;br style=&quot;padding: 0px; margin: 0px;&quot;&gt;&amp;nbsp; &amp;nbsp; &amp;nbsp; &amp;nbsp; +string Type&lt;br style=&quot;padding: 0px; margin: 0px;&quot;&gt;" style="text;strokeColor=none;fillColor=none;align=left;verticalAlign=top;spacingLeft=4;spacingRight=4;overflow=hidden;rotatable=0;points=[[0,0.5],[1,0.5]];portConstraint=eastwest;whiteSpace=wrap;html=1;" parent="EbOq1lk0TwP8zjaR6-vU-33" vertex="1">
          <mxGeometry y="26" width="270" height="44" as="geometry" />
        </mxCell>
        <mxCell id="EbOq1lk0TwP8zjaR6-vU-35" value="" style="line;strokeWidth=1;fillColor=none;align=left;verticalAlign=middle;spacingTop=-1;spacingLeft=3;spacingRight=3;rotatable=0;labelPosition=right;points=[];portConstraint=eastwest;strokeColor=inherit;" parent="EbOq1lk0TwP8zjaR6-vU-33" vertex="1">
          <mxGeometry y="70" width="270" height="8" as="geometry" />
        </mxCell>
        <mxCell id="EbOq1lk0TwP8zjaR6-vU-36" value="&amp;nbsp; &amp;nbsp; &amp;nbsp; &amp;nbsp; +Piece(string color, string type)&lt;br style=&quot;padding: 0px; margin: 0px;&quot;&gt;&amp;nbsp; &amp;nbsp; &amp;nbsp; &amp;nbsp; +Piece Clone()&lt;br style=&quot;padding: 0px; margin: 0px;&quot;&gt;&amp;nbsp; &amp;nbsp; &amp;nbsp; &amp;nbsp; +string GetUnicodeSymbol()&lt;br style=&quot;padding: 0px; margin: 0px;&quot;&gt;&amp;nbsp; &amp;nbsp; &amp;nbsp; &amp;nbsp; +int GetValue()" style="text;strokeColor=none;fillColor=none;align=left;verticalAlign=top;spacingLeft=4;spacingRight=4;overflow=hidden;rotatable=0;points=[[0,0.5],[1,0.5]];portConstraint=eastwest;whiteSpace=wrap;html=1;" parent="EbOq1lk0TwP8zjaR6-vU-33" vertex="1">
          <mxGeometry y="78" width="270" height="72" as="geometry" />
        </mxCell>
        <mxCell id="EbOq1lk0TwP8zjaR6-vU-37" value="&lt;span style=&quot;font-weight: 400; text-align: left;&quot;&gt;&amp;lt;&amp;lt;enumeration&amp;gt;&amp;gt;&lt;/span&gt;&lt;div&gt;&lt;span style=&quot;text-align: left;&quot;&gt;ChessColor&lt;/span&gt;&lt;span style=&quot;font-weight: 400; text-align: left;&quot;&gt;&lt;/span&gt;&lt;/div&gt;" style="swimlane;fontStyle=1;align=center;verticalAlign=top;childLayout=stackLayout;horizontal=1;startSize=40;horizontalStack=0;resizeParent=1;resizeParentMax=0;resizeLast=0;collapsible=1;marginBottom=0;whiteSpace=wrap;html=1;" parent="1" vertex="1">
          <mxGeometry x="790" y="-490" width="130" height="88" as="geometry" />
        </mxCell>
        <mxCell id="EbOq1lk0TwP8zjaR6-vU-38" value="&amp;nbsp; &amp;nbsp; &amp;nbsp; &amp;nbsp; White&lt;br style=&quot;padding: 0px; margin: 0px;&quot;&gt;&amp;nbsp; &amp;nbsp; &amp;nbsp; &amp;nbsp; Black" style="text;strokeColor=none;fillColor=none;align=left;verticalAlign=top;spacingLeft=4;spacingRight=4;overflow=hidden;rotatable=0;points=[[0,0.5],[1,0.5]];portConstraint=eastwest;whiteSpace=wrap;html=1;" parent="EbOq1lk0TwP8zjaR6-vU-37" vertex="1">
          <mxGeometry y="40" width="130" height="40" as="geometry" />
        </mxCell>
        <mxCell id="EbOq1lk0TwP8zjaR6-vU-39" value="" style="line;strokeWidth=1;fillColor=none;align=left;verticalAlign=middle;spacingTop=-1;spacingLeft=3;spacingRight=3;rotatable=0;labelPosition=right;points=[];portConstraint=eastwest;strokeColor=inherit;" parent="EbOq1lk0TwP8zjaR6-vU-37" vertex="1">
          <mxGeometry y="80" width="130" height="8" as="geometry" />
        </mxCell>
        <mxCell id="EbOq1lk0TwP8zjaR6-vU-41" value="&lt;span style=&quot;text-align: left;&quot;&gt;MoveEventArgs&lt;/span&gt;" style="swimlane;fontStyle=1;align=center;verticalAlign=top;childLayout=stackLayout;horizontal=1;startSize=26;horizontalStack=0;resizeParent=1;resizeParentMax=0;resizeLast=0;collapsible=1;marginBottom=0;whiteSpace=wrap;html=1;" parent="1" vertex="1">
          <mxGeometry x="-280" y="-290" width="160" height="118" as="geometry" />
        </mxCell>
        <mxCell id="EbOq1lk0TwP8zjaR6-vU-42" value="&amp;nbsp; &amp;nbsp; &amp;nbsp; &amp;nbsp; +int StartRow&lt;br style=&quot;padding: 0px; margin: 0px;&quot;&gt;&amp;nbsp; &amp;nbsp; &amp;nbsp; &amp;nbsp; +int StartCol&lt;br style=&quot;padding: 0px; margin: 0px;&quot;&gt;&amp;nbsp; &amp;nbsp; &amp;nbsp; &amp;nbsp; +int EndRow&lt;br style=&quot;padding: 0px; margin: 0px;&quot;&gt;&amp;nbsp; &amp;nbsp; &amp;nbsp; &amp;nbsp; +int EndCol&lt;br style=&quot;padding: 0px; margin: 0px;&quot;&gt;&amp;nbsp; &amp;nbsp; &amp;nbsp; &amp;nbsp; +string MoveNotation" style="text;strokeColor=none;fillColor=none;align=left;verticalAlign=top;spacingLeft=4;spacingRight=4;overflow=hidden;rotatable=0;points=[[0,0.5],[1,0.5]];portConstraint=eastwest;whiteSpace=wrap;html=1;" parent="EbOq1lk0TwP8zjaR6-vU-41" vertex="1">
          <mxGeometry y="26" width="160" height="84" as="geometry" />
        </mxCell>
        <mxCell id="EbOq1lk0TwP8zjaR6-vU-43" value="" style="line;strokeWidth=1;fillColor=none;align=left;verticalAlign=middle;spacingTop=-1;spacingLeft=3;spacingRight=3;rotatable=0;labelPosition=right;points=[];portConstraint=eastwest;strokeColor=inherit;" parent="EbOq1lk0TwP8zjaR6-vU-41" vertex="1">
          <mxGeometry y="110" width="160" height="8" as="geometry" />
        </mxCell>
        <mxCell id="EbOq1lk0TwP8zjaR6-vU-45" value="&lt;span style=&quot;text-align: left;&quot;&gt;GameEndEventArgs&lt;/span&gt;" style="swimlane;fontStyle=1;align=center;verticalAlign=top;childLayout=stackLayout;horizontal=1;startSize=26;horizontalStack=0;resizeParent=1;resizeParentMax=0;resizeLast=0;collapsible=1;marginBottom=0;whiteSpace=wrap;html=1;" parent="1" vertex="1">
          <mxGeometry x="870" y="-280" width="200" height="78" as="geometry" />
        </mxCell>
        <mxCell id="EbOq1lk0TwP8zjaR6-vU-46" value="&amp;nbsp; &amp;nbsp; &amp;nbsp; &amp;nbsp; +GameEndType EndType&lt;br style=&quot;padding: 0px; margin: 0px;&quot;&gt;&amp;nbsp; &amp;nbsp; &amp;nbsp; &amp;nbsp; +string WinnerColor" style="text;strokeColor=none;fillColor=none;align=left;verticalAlign=top;spacingLeft=4;spacingRight=4;overflow=hidden;rotatable=0;points=[[0,0.5],[1,0.5]];portConstraint=eastwest;whiteSpace=wrap;html=1;" parent="EbOq1lk0TwP8zjaR6-vU-45" vertex="1">
          <mxGeometry y="26" width="200" height="44" as="geometry" />
        </mxCell>
        <mxCell id="EbOq1lk0TwP8zjaR6-vU-47" value="" style="line;strokeWidth=1;fillColor=none;align=left;verticalAlign=middle;spacingTop=-1;spacingLeft=3;spacingRight=3;rotatable=0;labelPosition=right;points=[];portConstraint=eastwest;strokeColor=inherit;" parent="EbOq1lk0TwP8zjaR6-vU-45" vertex="1">
          <mxGeometry y="70" width="200" height="8" as="geometry" />
        </mxCell>
        <mxCell id="EbOq1lk0TwP8zjaR6-vU-49" value="&lt;span style=&quot;text-align: left;&quot;&gt;PawnPromotionEventArgs&lt;/span&gt;" style="swimlane;fontStyle=1;align=center;verticalAlign=top;childLayout=stackLayout;horizontal=1;startSize=26;horizontalStack=0;resizeParent=1;resizeParentMax=0;resizeLast=0;collapsible=1;marginBottom=0;whiteSpace=wrap;html=1;" parent="1" vertex="1">
          <mxGeometry x="-430" y="-598" width="300" height="118" as="geometry" />
        </mxCell>
        <mxCell id="EbOq1lk0TwP8zjaR6-vU-50" value="&amp;nbsp; &amp;nbsp; &amp;nbsp; &amp;nbsp; +int Row&lt;br style=&quot;padding: 0px; margin: 0px;&quot;&gt;&amp;nbsp; &amp;nbsp; &amp;nbsp; &amp;nbsp; +int Col&lt;br style=&quot;padding: 0px; margin: 0px;&quot;&gt;&amp;nbsp; &amp;nbsp; &amp;nbsp; &amp;nbsp; +string PawnColor&lt;br style=&quot;padding: 0px; margin: 0px;&quot;&gt;&amp;nbsp; &amp;nbsp; &amp;nbsp; &amp;nbsp; +string PromotionPiece&lt;br style=&quot;padding: 0px; margin: 0px;&quot;&gt;&amp;nbsp; &amp;nbsp; &amp;nbsp; &amp;nbsp; +bool IsCancelled" style="text;strokeColor=none;fillColor=none;align=left;verticalAlign=top;spacingLeft=4;spacingRight=4;overflow=hidden;rotatable=0;points=[[0,0.5],[1,0.5]];portConstraint=eastwest;whiteSpace=wrap;html=1;" parent="EbOq1lk0TwP8zjaR6-vU-49" vertex="1">
          <mxGeometry y="26" width="300" height="84" as="geometry" />
        </mxCell>
        <mxCell id="EbOq1lk0TwP8zjaR6-vU-51" value="" style="line;strokeWidth=1;fillColor=none;align=left;verticalAlign=middle;spacingTop=-1;spacingLeft=3;spacingRight=3;rotatable=0;labelPosition=right;points=[];portConstraint=eastwest;strokeColor=inherit;" parent="EbOq1lk0TwP8zjaR6-vU-49" vertex="1">
          <mxGeometry y="110" width="300" height="8" as="geometry" />
        </mxCell>
        <mxCell id="EbOq1lk0TwP8zjaR6-vU-53" value="&lt;span style=&quot;font-weight: 400; text-align: left;&quot;&gt;&amp;lt;&amp;lt;interface&amp;gt;&amp;gt;&lt;br&gt;&lt;/span&gt;&lt;span style=&quot;text-align: left;&quot;&gt;INotifyPropertyChanged&lt;/span&gt;&lt;span style=&quot;font-weight: 400; text-align: left;&quot;&gt;&lt;/span&gt;" style="swimlane;fontStyle=1;align=center;verticalAlign=top;childLayout=stackLayout;horizontal=1;startSize=40;horizontalStack=0;resizeParent=1;resizeParentMax=0;resizeLast=0;collapsible=1;marginBottom=0;whiteSpace=wrap;html=1;" parent="1" vertex="1">
          <mxGeometry x="1900" y="43" width="340" height="94" as="geometry" />
        </mxCell>
        <mxCell id="EbOq1lk0TwP8zjaR6-vU-54" value="&amp;nbsp; &amp;nbsp; &amp;nbsp; &amp;nbsp; +event PropertyChangedEventHandler PropertyChanged" style="text;strokeColor=none;fillColor=none;align=left;verticalAlign=top;spacingLeft=4;spacingRight=4;overflow=hidden;rotatable=0;points=[[0,0.5],[1,0.5]];portConstraint=eastwest;whiteSpace=wrap;html=1;" parent="EbOq1lk0TwP8zjaR6-vU-53" vertex="1">
          <mxGeometry y="40" width="340" height="46" as="geometry" />
        </mxCell>
        <mxCell id="EbOq1lk0TwP8zjaR6-vU-55" value="" style="line;strokeWidth=1;fillColor=none;align=left;verticalAlign=middle;spacingTop=-1;spacingLeft=3;spacingRight=3;rotatable=0;labelPosition=right;points=[];portConstraint=eastwest;strokeColor=inherit;" parent="EbOq1lk0TwP8zjaR6-vU-53" vertex="1">
          <mxGeometry y="86" width="340" height="8" as="geometry" />
        </mxCell>
        <mxCell id="EbOq1lk0TwP8zjaR6-vU-57" value="&lt;div&gt;&lt;span style=&quot;text-align: left; font-weight: normal;&quot;&gt;&amp;lt;&amp;lt;enumeration&amp;gt;&amp;gt;&lt;/span&gt;&lt;span style=&quot;text-align: left;&quot;&gt;&lt;/span&gt;&lt;/div&gt;&lt;span style=&quot;text-align: left;&quot;&gt;MoveFlag&lt;/span&gt;" style="swimlane;fontStyle=1;align=center;verticalAlign=top;childLayout=stackLayout;horizontal=1;startSize=40;horizontalStack=0;resizeParent=1;resizeParentMax=0;resizeLast=0;collapsible=1;marginBottom=0;whiteSpace=wrap;html=1;" parent="1" vertex="1">
          <mxGeometry x="1320" y="270" width="166" height="132" as="geometry" />
        </mxCell>
        <mxCell id="EbOq1lk0TwP8zjaR6-vU-58" value="&amp;nbsp; &amp;nbsp; &amp;nbsp; &amp;nbsp; Normal&lt;br style=&quot;padding: 0px; margin: 0px;&quot;&gt;&amp;nbsp; &amp;nbsp; &amp;nbsp; &amp;nbsp; Promotion&lt;br style=&quot;padding: 0px; margin: 0px;&quot;&gt;&amp;nbsp; &amp;nbsp; &amp;nbsp; &amp;nbsp; EnPassantCapture&lt;br style=&quot;padding: 0px; margin: 0px;&quot;&gt;&amp;nbsp; &amp;nbsp; &amp;nbsp; &amp;nbsp; Castling" style="text;strokeColor=none;fillColor=none;align=left;verticalAlign=top;spacingLeft=4;spacingRight=4;overflow=hidden;rotatable=0;points=[[0,0.5],[1,0.5]];portConstraint=eastwest;whiteSpace=wrap;html=1;" parent="EbOq1lk0TwP8zjaR6-vU-57" vertex="1">
          <mxGeometry y="40" width="166" height="84" as="geometry" />
        </mxCell>
        <mxCell id="EbOq1lk0TwP8zjaR6-vU-59" value="" style="line;strokeWidth=1;fillColor=none;align=left;verticalAlign=middle;spacingTop=-1;spacingLeft=3;spacingRight=3;rotatable=0;labelPosition=right;points=[];portConstraint=eastwest;strokeColor=inherit;" parent="EbOq1lk0TwP8zjaR6-vU-57" vertex="1">
          <mxGeometry y="124" width="166" height="8" as="geometry" />
        </mxCell>
        <mxCell id="EbOq1lk0TwP8zjaR6-vU-61" value="&lt;div&gt;&lt;span style=&quot;font-weight: 400; text-align: left;&quot;&gt;&amp;lt;&amp;lt;enumeration&amp;gt;&amp;gt;&lt;/span&gt;&lt;br style=&quot;font-weight: 400; text-align: left; padding: 0px; margin: 0px;&quot;&gt;&lt;/div&gt;&lt;span style=&quot;text-align: left;&quot;&gt;ComputerDifficulty&lt;/span&gt;" style="swimlane;fontStyle=1;align=center;verticalAlign=top;childLayout=stackLayout;horizontal=1;startSize=40;horizontalStack=0;resizeParent=1;resizeParentMax=0;resizeLast=0;collapsible=1;marginBottom=0;whiteSpace=wrap;html=1;" parent="1" vertex="1">
          <mxGeometry x="20" y="-120" width="160" height="128" as="geometry" />
        </mxCell>
        <mxCell id="EbOq1lk0TwP8zjaR6-vU-62" value="&amp;nbsp; &amp;nbsp; &amp;nbsp; &amp;nbsp; Random&lt;br style=&quot;padding: 0px; margin: 0px;&quot;&gt;&amp;nbsp; &amp;nbsp; &amp;nbsp; &amp;nbsp; Easy&lt;br style=&quot;padding: 0px; margin: 0px;&quot;&gt;&amp;nbsp; &amp;nbsp; &amp;nbsp; &amp;nbsp; Medium&lt;br style=&quot;padding: 0px; margin: 0px;&quot;&gt;&amp;nbsp; &amp;nbsp; &amp;nbsp; &amp;nbsp; Hard&lt;br style=&quot;padding: 0px; margin: 0px;&quot;&gt;&amp;nbsp; &amp;nbsp; &amp;nbsp; &amp;nbsp; Expert" style="text;strokeColor=none;fillColor=none;align=left;verticalAlign=top;spacingLeft=4;spacingRight=4;overflow=hidden;rotatable=0;points=[[0,0.5],[1,0.5]];portConstraint=eastwest;whiteSpace=wrap;html=1;" parent="EbOq1lk0TwP8zjaR6-vU-61" vertex="1">
          <mxGeometry y="40" width="160" height="80" as="geometry" />
        </mxCell>
        <mxCell id="EbOq1lk0TwP8zjaR6-vU-63" value="" style="line;strokeWidth=1;fillColor=none;align=left;verticalAlign=middle;spacingTop=-1;spacingLeft=3;spacingRight=3;rotatable=0;labelPosition=right;points=[];portConstraint=eastwest;strokeColor=inherit;" parent="EbOq1lk0TwP8zjaR6-vU-61" vertex="1">
          <mxGeometry y="120" width="160" height="8" as="geometry" />
        </mxCell>
        <mxCell id="EbOq1lk0TwP8zjaR6-vU-66" value="" style="endArrow=diamondThin;endFill=0;endSize=24;html=1;rounded=0;exitX=1;exitY=0.5;exitDx=0;exitDy=0;entryX=0;entryY=0.5;entryDx=0;entryDy=0;" parent="1" source="EbOq1lk0TwP8zjaR6-vU-36" target="EbOq1lk0TwP8zjaR6-vU-24" edge="1">
          <mxGeometry width="160" relative="1" as="geometry">
            <mxPoint x="860" y="350" as="sourcePoint" />
            <mxPoint x="1020" y="350" as="targetPoint" />
          </mxGeometry>
        </mxCell>
        <mxCell id="EbOq1lk0TwP8zjaR6-vU-80" value="contain" style="edgeLabel;html=1;align=center;verticalAlign=middle;resizable=0;points=[];" parent="EbOq1lk0TwP8zjaR6-vU-66" vertex="1" connectable="0">
          <mxGeometry x="0.0397" y="-3" relative="1" as="geometry">
            <mxPoint as="offset" />
          </mxGeometry>
        </mxCell>
        <mxCell id="EbOq1lk0TwP8zjaR6-vU-67" value="" style="endArrow=diamondThin;endFill=0;endSize=24;html=1;rounded=0;exitX=0.5;exitY=0;exitDx=0;exitDy=0;entryX=0.584;entryY=1.003;entryDx=0;entryDy=0;entryPerimeter=0;" parent="1" source="EbOq1lk0TwP8zjaR6-vU-13" target="EbOq1lk0TwP8zjaR6-vU-4" edge="1">
          <mxGeometry width="160" relative="1" as="geometry">
            <mxPoint x="480" y="-120" as="sourcePoint" />
            <mxPoint x="640" y="-120" as="targetPoint" />
          </mxGeometry>
        </mxCell>
        <mxCell id="EbOq1lk0TwP8zjaR6-vU-75" value="use" style="edgeLabel;html=1;align=center;verticalAlign=middle;resizable=0;points=[];" parent="EbOq1lk0TwP8zjaR6-vU-67" vertex="1" connectable="0">
          <mxGeometry x="-0.0613" y="1" relative="1" as="geometry">
            <mxPoint as="offset" />
          </mxGeometry>
        </mxCell>
        <mxCell id="EbOq1lk0TwP8zjaR6-vU-83" value="" style="endArrow=diamondThin;endFill=0;endSize=24;html=1;rounded=0;entryX=0.593;entryY=1.043;entryDx=0;entryDy=0;entryPerimeter=0;exitX=0.812;exitY=1.046;exitDx=0;exitDy=0;exitPerimeter=0;" parent="1" source="EbOq1lk0TwP8zjaR6-vU-36" target="EbOq1lk0TwP8zjaR6-vU-32" edge="1">
          <mxGeometry width="160" relative="1" as="geometry">
            <mxPoint x="1130" y="90" as="sourcePoint" />
            <mxPoint x="1290" y="90" as="targetPoint" />
            <Array as="points">
              <mxPoint x="633" y="580" />
              <mxPoint x="1633" y="570" />
            </Array>
          </mxGeometry>
        </mxCell>
        <mxCell id="EbOq1lk0TwP8zjaR6-vU-84" value="contain" style="edgeLabel;html=1;align=center;verticalAlign=middle;resizable=0;points=[];" parent="EbOq1lk0TwP8zjaR6-vU-83" vertex="1" connectable="0">
          <mxGeometry x="-0.1933" y="-2" relative="1" as="geometry">
            <mxPoint as="offset" />
          </mxGeometry>
        </mxCell>
        <mxCell id="EbOq1lk0TwP8zjaR6-vU-87" value="" style="endArrow=block;startArrow=none;endFill=0;startFill=0;endSize=8;html=1;verticalAlign=bottom;dashed=1;labelBackgroundColor=none;rounded=0;entryX=0.5;entryY=0;entryDx=0;entryDy=0;exitX=0.979;exitY=1;exitDx=0;exitDy=0;exitPerimeter=0;" parent="1" source="EbOq1lk0TwP8zjaR6-vU-7" target="EbOq1lk0TwP8zjaR6-vU-53" edge="1">
          <mxGeometry width="160" relative="1" as="geometry">
            <mxPoint x="1790" y="-250" as="sourcePoint" />
            <mxPoint x="1950" y="-250" as="targetPoint" />
            <Array as="points">
              <mxPoint x="2070" y="-690" />
            </Array>
          </mxGeometry>
        </mxCell>
        <mxCell id="EbOq1lk0TwP8zjaR6-vU-88" value="implements" style="edgeLabel;html=1;align=center;verticalAlign=middle;resizable=0;points=[];" parent="EbOq1lk0TwP8zjaR6-vU-87" vertex="1" connectable="0">
          <mxGeometry x="0.5854" y="2" relative="1" as="geometry">
            <mxPoint as="offset" />
          </mxGeometry>
        </mxCell>
        <mxCell id="EbOq1lk0TwP8zjaR6-vU-89" value="" style="endArrow=block;startArrow=none;endFill=0;startFill=0;endSize=8;html=1;verticalAlign=bottom;dashed=1;labelBackgroundColor=none;rounded=0;entryX=0;entryY=0.5;entryDx=0;entryDy=0;exitX=1;exitY=0.5;exitDx=0;exitDy=0;" parent="1" source="EbOq1lk0TwP8zjaR6-vU-32" target="EbOq1lk0TwP8zjaR6-vU-54" edge="1">
          <mxGeometry width="160" relative="1" as="geometry">
            <mxPoint x="1560" y="-60" as="sourcePoint" />
            <mxPoint x="1720" y="-60" as="targetPoint" />
          </mxGeometry>
        </mxCell>
        <mxCell id="EbOq1lk0TwP8zjaR6-vU-90" value="implements" style="edgeLabel;html=1;align=center;verticalAlign=middle;resizable=0;points=[];" parent="EbOq1lk0TwP8zjaR6-vU-89" vertex="1" connectable="0">
          <mxGeometry x="0.2703" y="-4" relative="1" as="geometry">
            <mxPoint x="-17" y="4" as="offset" />
          </mxGeometry>
        </mxCell>
        <mxCell id="EbOq1lk0TwP8zjaR6-vU-99" value="" style="endArrow=diamondThin;endFill=1;endSize=24;html=1;rounded=0;exitX=0.25;exitY=0;exitDx=0;exitDy=0;entryX=0.459;entryY=1.006;entryDx=0;entryDy=0;entryPerimeter=0;" parent="1" source="EbOq1lk0TwP8zjaR6-vU-33" target="EbOq1lk0TwP8zjaR6-vU-16" edge="1">
          <mxGeometry width="160" relative="1" as="geometry">
            <mxPoint x="220" y="210" as="sourcePoint" />
            <mxPoint x="380" y="210" as="targetPoint" />
          </mxGeometry>
        </mxCell>
        <mxCell id="EbOq1lk0TwP8zjaR6-vU-100" value="" style="endArrow=diamondThin;endFill=1;endSize=24;html=1;rounded=0;entryX=1;entryY=0.5;entryDx=0;entryDy=0;exitX=0.25;exitY=0;exitDx=0;exitDy=0;" parent="1" source="EbOq1lk0TwP8zjaR6-vU-29" target="EbOq1lk0TwP8zjaR6-vU-9" edge="1">
          <mxGeometry width="160" relative="1" as="geometry">
            <mxPoint x="1020" y="-460" as="sourcePoint" />
            <mxPoint x="1180" y="-460" as="targetPoint" />
            <Array as="points">
              <mxPoint x="1500" y="-641" />
            </Array>
          </mxGeometry>
        </mxCell>
        <mxCell id="EbOq1lk0TwP8zjaR6-vU-101" value="" style="endArrow=diamondThin;endFill=1;endSize=24;html=1;rounded=0;entryX=0;entryY=0.5;entryDx=0;entryDy=0;exitX=0.5;exitY=0;exitDx=0;exitDy=0;" parent="1" source="EbOq1lk0TwP8zjaR6-vU-1" target="EbOq1lk0TwP8zjaR6-vU-7" edge="1">
          <mxGeometry width="160" relative="1" as="geometry">
            <mxPoint x="1020" y="-460" as="sourcePoint" />
            <mxPoint x="1180" y="-460" as="targetPoint" />
          </mxGeometry>
        </mxCell>
        <mxCell id="EbOq1lk0TwP8zjaR6-vU-102" value="" style="endArrow=classic;html=1;rounded=0;exitX=1;exitY=0.5;exitDx=0;exitDy=0;entryX=0.5;entryY=0;entryDx=0;entryDy=0;dashed=1;" parent="1" source="EbOq1lk0TwP8zjaR6-vU-4" target="EbOq1lk0TwP8zjaR6-vU-45" edge="1">
          <mxGeometry width="50" height="50" relative="1" as="geometry">
            <mxPoint x="1080" y="-440" as="sourcePoint" />
            <mxPoint x="1130" y="-490" as="targetPoint" />
          </mxGeometry>
        </mxCell>
        <mxCell id="EbOq1lk0TwP8zjaR6-vU-103" value="make" style="edgeLabel;html=1;align=center;verticalAlign=middle;resizable=0;points=[];" parent="EbOq1lk0TwP8zjaR6-vU-102" vertex="1" connectable="0">
          <mxGeometry x="0.3146" y="1" relative="1" as="geometry">
            <mxPoint x="-28" y="-10" as="offset" />
          </mxGeometry>
        </mxCell>
        <mxCell id="EbOq1lk0TwP8zjaR6-vU-104" value="" style="endArrow=classic;html=1;rounded=0;exitX=0.884;exitY=1.015;exitDx=0;exitDy=0;exitPerimeter=0;entryX=0.5;entryY=0;entryDx=0;entryDy=0;dashed=1;" parent="1" source="EbOq1lk0TwP8zjaR6-vU-4" target="EbOq1lk0TwP8zjaR6-vU-21" edge="1">
          <mxGeometry width="50" height="50" relative="1" as="geometry">
            <mxPoint x="1080" y="-100" as="sourcePoint" />
            <mxPoint x="1130" y="-150" as="targetPoint" />
          </mxGeometry>
        </mxCell>
        <mxCell id="EbOq1lk0TwP8zjaR6-vU-105" value="make" style="edgeLabel;html=1;align=center;verticalAlign=middle;resizable=0;points=[];" parent="EbOq1lk0TwP8zjaR6-vU-104" vertex="1" connectable="0">
          <mxGeometry x="0.1166" relative="1" as="geometry">
            <mxPoint as="offset" />
          </mxGeometry>
        </mxCell>
        <mxCell id="EbOq1lk0TwP8zjaR6-vU-106" value="" style="endArrow=classic;html=1;rounded=0;entryX=1;entryY=0.597;entryDx=0;entryDy=0;entryPerimeter=0;exitX=0;exitY=0.5;exitDx=0;exitDy=0;dashed=1;" parent="1" source="EbOq1lk0TwP8zjaR6-vU-2" target="EbOq1lk0TwP8zjaR6-vU-50" edge="1">
          <mxGeometry width="50" height="50" relative="1" as="geometry">
            <mxPoint x="250" y="-320" as="sourcePoint" />
            <mxPoint x="300" y="-370" as="targetPoint" />
          </mxGeometry>
        </mxCell>
        <mxCell id="EbOq1lk0TwP8zjaR6-vU-107" value="make" style="edgeLabel;html=1;align=center;verticalAlign=middle;resizable=0;points=[];" parent="EbOq1lk0TwP8zjaR6-vU-106" vertex="1" connectable="0">
          <mxGeometry x="0.016" y="-2" relative="1" as="geometry">
            <mxPoint as="offset" />
          </mxGeometry>
        </mxCell>
        <mxCell id="EbOq1lk0TwP8zjaR6-vU-108" value="&#xa;&lt;span style=&quot;color: rgb(0, 0, 0); font-family: Helvetica; font-size: 11px; font-style: normal; font-variant-ligatures: normal; font-variant-caps: normal; font-weight: 400; letter-spacing: normal; orphans: 2; text-align: center; text-indent: 0px; text-transform: none; widows: 2; word-spacing: 0px; -webkit-text-stroke-width: 0px; white-space: nowrap; background-color: rgb(255, 255, 255); text-decoration-thickness: initial; text-decoration-style: initial; text-decoration-color: initial; display: inline !important; float: none;&quot;&gt;use&lt;/span&gt;&#xa;&#xa;" style="endArrow=classic;html=1;rounded=0;entryX=1;entryY=0.5;entryDx=0;entryDy=0;exitX=0;exitY=0.5;exitDx=0;exitDy=0;dashed=1;" parent="1" source="EbOq1lk0TwP8zjaR6-vU-4" target="EbOq1lk0TwP8zjaR6-vU-42" edge="1">
          <mxGeometry x="0.0537" width="50" height="50" relative="1" as="geometry">
            <mxPoint x="150" y="-550" as="sourcePoint" />
            <mxPoint x="200" y="-600" as="targetPoint" />
            <mxPoint as="offset" />
          </mxGeometry>
        </mxCell>
        <mxCell id="EbOq1lk0TwP8zjaR6-vU-109" value="" style="endArrow=classic;html=1;rounded=0;entryX=0.5;entryY=0;entryDx=0;entryDy=0;exitX=0.217;exitY=1.008;exitDx=0;exitDy=0;exitPerimeter=0;dashed=1;" parent="1" source="EbOq1lk0TwP8zjaR6-vU-4" target="EbOq1lk0TwP8zjaR6-vU-61" edge="1">
          <mxGeometry width="50" height="50" relative="1" as="geometry">
            <mxPoint x="150" y="-550" as="sourcePoint" />
            <mxPoint x="200" y="-600" as="targetPoint" />
          </mxGeometry>
        </mxCell>
        <mxCell id="EbOq1lk0TwP8zjaR6-vU-110" value="use" style="edgeLabel;html=1;align=center;verticalAlign=middle;resizable=0;points=[];" parent="EbOq1lk0TwP8zjaR6-vU-109" vertex="1" connectable="0">
          <mxGeometry x="-0.0811" y="3" relative="1" as="geometry">
            <mxPoint as="offset" />
          </mxGeometry>
        </mxCell>
        <mxCell id="EbOq1lk0TwP8zjaR6-vU-111" value="" style="endArrow=classic;html=1;rounded=0;entryX=0.5;entryY=0;entryDx=0;entryDy=0;exitX=0.241;exitY=1.015;exitDx=0;exitDy=0;exitPerimeter=0;dashed=1;" parent="1" source="EbOq1lk0TwP8zjaR6-vU-9" target="EbOq1lk0TwP8zjaR6-vU-37" edge="1">
          <mxGeometry width="50" height="50" relative="1" as="geometry">
            <mxPoint x="960" y="-660" as="sourcePoint" />
            <mxPoint x="1010" y="-710" as="targetPoint" />
          </mxGeometry>
        </mxCell>
        <mxCell id="EbOq1lk0TwP8zjaR6-vU-112" value="use" style="edgeLabel;html=1;align=center;verticalAlign=middle;resizable=0;points=[];" parent="EbOq1lk0TwP8zjaR6-vU-111" vertex="1" connectable="0">
          <mxGeometry x="-0.1508" y="-1" relative="1" as="geometry">
            <mxPoint as="offset" />
          </mxGeometry>
        </mxCell>
        <mxCell id="EbOq1lk0TwP8zjaR6-vU-114" value="" style="endArrow=classic;html=1;rounded=0;entryX=0.5;entryY=0;entryDx=0;entryDy=0;exitX=0.775;exitY=0.995;exitDx=0;exitDy=0;exitPerimeter=0;dashed=1;" parent="1" source="EbOq1lk0TwP8zjaR6-vU-9" target="EbOq1lk0TwP8zjaR6-vU-25" edge="1">
          <mxGeometry width="50" height="50" relative="1" as="geometry">
            <mxPoint x="960" y="-660" as="sourcePoint" />
            <mxPoint x="1010" y="-710" as="targetPoint" />
          </mxGeometry>
        </mxCell>
        <mxCell id="EbOq1lk0TwP8zjaR6-vU-115" value="creates" style="edgeLabel;html=1;align=center;verticalAlign=middle;resizable=0;points=[];" parent="EbOq1lk0TwP8zjaR6-vU-114" vertex="1" connectable="0">
          <mxGeometry x="-0.0707" y="3" relative="1" as="geometry">
            <mxPoint as="offset" />
          </mxGeometry>
        </mxCell>
        <mxCell id="EbOq1lk0TwP8zjaR6-vU-116" value="" style="endArrow=classic;html=1;rounded=0;entryX=0;entryY=0.5;entryDx=0;entryDy=0;exitX=1;exitY=0.5;exitDx=0;exitDy=0;dashed=1;" parent="1" source="EbOq1lk0TwP8zjaR6-vU-22" target="EbOq1lk0TwP8zjaR6-vU-58" edge="1">
          <mxGeometry width="50" height="50" relative="1" as="geometry">
            <mxPoint x="1280" y="110" as="sourcePoint" />
            <mxPoint x="1330" y="60" as="targetPoint" />
          </mxGeometry>
        </mxCell>
        <mxCell id="EbOq1lk0TwP8zjaR6-vU-117" value="uses" style="edgeLabel;html=1;align=center;verticalAlign=middle;resizable=0;points=[];" parent="EbOq1lk0TwP8zjaR6-vU-116" vertex="1" connectable="0">
          <mxGeometry x="0.0218" y="-1" relative="1" as="geometry">
            <mxPoint as="offset" />
          </mxGeometry>
        </mxCell>
        <mxCell id="EbOq1lk0TwP8zjaR6-vU-118" value="" style="endArrow=classic;html=1;rounded=0;entryX=1;entryY=0.5;entryDx=0;entryDy=0;exitX=0;exitY=0.5;exitDx=0;exitDy=0;dashed=1;" parent="1" source="EbOq1lk0TwP8zjaR6-vU-16" target="EbOq1lk0TwP8zjaR6-vU-18" edge="1">
          <mxGeometry width="50" height="50" relative="1" as="geometry">
            <mxPoint x="780" y="-60" as="sourcePoint" />
            <mxPoint x="830" y="-110" as="targetPoint" />
          </mxGeometry>
        </mxCell>
        <mxCell id="EbOq1lk0TwP8zjaR6-vU-119" value="uses" style="edgeLabel;html=1;align=center;verticalAlign=middle;resizable=0;points=[];" parent="EbOq1lk0TwP8zjaR6-vU-118" vertex="1" connectable="0">
          <mxGeometry x="-0.0612" y="-1" relative="1" as="geometry">
            <mxPoint x="-1" as="offset" />
          </mxGeometry>
        </mxCell>
      </root>
    </mxGraphModel>
  </diagram>
</mxfile>
